<?xml version="1.0" encoding="utf-8"?>
<!-- Generator: Adobe Illustrator 25.0.1, SVG Export Plug-In . SVG Version: 6.00 Build 0)  -->
<svg version="1.0" id="katman_1" xmlns:ooo="http://xml.openoffice.org/svg/export"
	 xmlns="http://www.w3.org/2000/svg" xmlns:xlink="http://www.w3.org/1999/xlink" x="0px" y="0px" viewBox="0 0 466.9 349.6"
	 style="enable-background:new 0 0 466.9 349.6;" xml:space="preserve">
<style type="text/css">
	.st0{clip-path:url(#SVGID_2_);}
	.st1{fill-rule:evenodd;clip-rule:evenodd;fill:#170C0D;}
	.st2{fill-rule:evenodd;clip-rule:evenodd;fill:#1F1310;}
	.st3{fill-rule:evenodd;clip-rule:evenodd;fill:#FFD100;}
	.st4{fill:none;stroke:#FFD100;stroke-width:0.4252;stroke-linejoin:round;stroke-miterlimit:10;}
</style>
<g>
	<g id="id2">
		<g id="bg-id2">
		</g>
		<g id="bo-id2">
		</g>
	</g>
</g>
<g>
	<g>
		<g>
			<defs>
				<rect id="SVGID_1_" x="47.9" y="92.6" width="371.1" height="164.4"/>
			</defs>
			<clipPath id="SVGID_2_">
				<use xlink:href="#SVGID_1_"  style="overflow:visible;"/>
			</clipPath>
			<g id="id1" class="st0">
				<g>
					<g>
						<g>
							<g id="id3">
								<path class="st1" d="M266.6,112c-2.7,0.5-2.2,4.2-4.8,4.7c1.6,4.3,4.4-2.2,7.5-1.2C271,113.3,267.6,112.8,266.6,112z
									 M280.6,97.8c5.3,6.4,1.6,16.8,2.4,23.7c-1.7,4-4.9,8.3-9.2,9.9c-0.6,1.4-2,1.2-3,2.3c5.2,0.8,8.6-3.7,13.6-4.3
									c1.6-2.1,4.6-5.9,8.1-4.5c1.7,0.5,3.4,2.2,4.3,3.5c-0.3,1.9-0.7,3.8-2.2,5.1c1.6,8.1-6.8,11.8-12.4,14.9
									c-2.4,0.5-4.3,2.6-7.1,2.4c-4.4,0.8-8.8,0.5-13.3-0.8c-8.5-0.7-14.1-8.6-18.7-14.3c-0.4-1.6-0.4-3.1-0.9-4.6
									c-4.9,5,1.9,10.8-1.2,16c1.9,1.5,0.1,3.6-0.7,5.1c-1.4,1.6-3.7,2.4-5.9,2.9c-2.2-0.5-4.7-0.1-6-2.4
									c-1.1-4.6-1.9-8.3-1.1-13.2c-1-1.3-2.9-0.1-4.3-1c-0.2,4.3,1.5,10.5-2.7,13.6c0.5,1.5-0.5,2.7-1.8,3.3
									c-3,0.5-6.7-0.5-8.4-3.1c-1.9-4.3,1-11.5-4.4-13.4c-4.4-2,1-9.6-5-8.1c-1.8,0.6-3.9,1.8-6.1,1.2c-0.1,0.3-0.5,0.4-0.6,0.7
									c-1.7,7.2,3.3,17-5.2,21.5c-2.7,1.7-5.8,1.8-8.3,0.2c-4.2-5.4-2.2-14.4-2.3-20.6c-2.1-2-5.9-0.3-8.4-1.2
									c-3.5-0.5-7-1.2-9.8-3.3c-1.8-2.3-4.3-4.6-2.8-7.8c0.8-2.1,1.7-4.9,4.5-5.5c5.5-2.4,11.8,1,17.3-0.7
									c0.1-2.9,0.7-6.1,3.6-7.3c3.6,0.3,8.8-6.9,11.6-0.3c0.9,2.5-1.3,4.9,0.6,7.1c3.2-2.3,8.5-0.2,11.3-3.5
									c5.7,2.2,1-6.1,6.6-5.8c1.4-1.5,1.6-3.5,3.4-5.1c2.8-1.5,5.2,1.2,6.8,3.1c0.5,3.6,0.9,8-0.3,11.4c3.8,2.3-2.6,9.6,4.4,8.8
									c2.4-7.6-6-16.3,1.4-22.9c2.6-0.4,2.2-3.1,4-3.9c2.1-1,4.3-0.3,6.2,0.5c1,0.7,1.2,1.7,2,2.4c1.3,7.4-0.7,15.2,0.7,22.2
									c1.2-8.5,6.7-15.6,12.4-22.4c3.2-2.3,7.3-3.4,10.7-5.6c3-1.4,6.7-1.9,10.2-1.2C276.7,94.8,278.1,96.1,280.6,97.8z"/>
							</g>
						</g>
						<g>
							<g id="id4">
								<path class="st1" d="M310.7,204.4c-2.4,2.4-2.9,6-2,9.2c1.8,0.7,4,0.2,6.1,0.3c0.7-0.2,1.3-0.9,1-1.8
									C311.1,211.4,314.3,206.1,310.7,204.4z M241.3,186.3c-1.9,1.8-0.9,4.8-2.2,6.9c-2.7,4.7,3.8,2.1,5.7,2.2
									C245,191.9,242.6,189.3,241.3,186.3z M135.5,135.9c4.1,1.1,7.7,5.7,8.4,9.8c-0.1,3.7,1.3,8.9-2.2,11.7
									c-0.5,2,1.2,4.7-1.4,5.9c-4.1,1.2-10.8,2.6-14.4-0.9c-2.7-2.1-0.7-6.6-3.5-8.3c-8.2-0.5-16.9-0.7-24,3.3
									c-3.6,0.2-6.1,2.6-9.9,2.3c-7.8,2.5-16.6,7.7-17.4,16.1c-2.8,3.7,3.9,3.2,2.7,7.1c6.3,5.1,11.7,12,19.6,14.6
									c0,0.3,0,0.4,0,0.7c10.1,3.6,18.4,12.1,28.6,15.8c4.6,2.4,8.8,5.9,12.9,9.4c3.3-9,2.5-16.8,3-26.8c-1.5-4.3-1-9.5,1.1-13.3
									c1.7-1.3,3.4-2.3,5.3-2.9c1.4,2.1,2.2-1.4,3.8-1.1c3.3-0.3,6.6,1.1,7.9,4.1c0.6,4.7,4.1,9.2,1.9,14.2
									c0.6,5.8,1.3,12.2-1.6,17.5c0.3,0.3,0.7,0.9,1.1,0.7c3.3-9.8,3-20.7,8.1-29.7c1.6-1.8,3.4-2.9,5.6-3.1c3.5,2,4-1.9,6.4-3.3
									c3.9-0.9,6.7,0.3,9.9,1.9c3.3,2.2,2.2,6.3,4.6,8.5c0.7-3.1,2.7-5.9,5.5-7.3c1-0.3,1.8,0.3,2,0.7c2,0.1,4.1-6.2,7.1-2.4
									c3,0.1,5.6,2.6,6.9,5c1,5.3-1.5,10.9,1.1,15.6c2.2-2.3,8.3-1.2,7.4-5.1c-0.8-7.7-0.5-16.9,7.9-20.8c5.2-2.3,11-5.2,16.9-3.6
									c6.5,2.7,10.1,8.8,12.7,14.2c1.2-5.6,5.8-9.4,11.1-11.5c2.6-0.3,5-1,7.2-2.7c5.5-1.7,10.7-6,16.9-4.3c3.3,2.1,4.5,6,5.1,9.6
									c-0.7,1.2-2.3,2.2-1.1,3.5c1.7,1.1,1.2,3.2,0.7,4.6c-3.7,2.6-9,1.3-13.4,2.8c-1.4,0.9-5.7-0.4-5.6,2.6
									c1.8,1.1,2.2,3.2,3.1,5c2.4,2.3,4.7,4.8,6.9,7.2c4.4-6,6.3-15.7,16-16c1.9,0.7,5.8-0.3,7.1,2c3.9,2,9,2.3,11.8,6.2
									c1.9,2,1.6,5,2.6,7.4c0.9-2.6,3.6-6.5,7.1-6.9c3.6,0.1,8.2-3.9,10.5,0.8c2.2,0.1,4,1.4,5.8,2.4c1.2-1.4,0.9-3.6,0.3-5.1
									c-1.9-3-6.3-5.1-4.7-9.2c2.6-3.2,4.9-6.3,6.5-10.1c1.2-0.9,2.3-1.9,4.1-1.5c5,2.8,7.2,8.9,10.1,13.7
									c1.4-3.5,3.7-6.7,5.5-10.2c6.9-8.8,17.6-14.6,30.2-12.4c3.5,1,6.3,4,8.8,6.2c-0.4,5.1,1.6,11.5-2.7,14.3
									c2.4,1.8-0.4,2.8,0.6,5.1c-2.6,1.8-4.3,6-8.2,4.5c-2.4-1.2-5.2-2.2-5.5-4.9c0-1.2,0.3-3-1.5-2.8c-2.6,1.5-5.8,1.4-7.9,3.7
									c0.2,3.4,4.4,6.5,7.4,8.8c2.4,3.2,8.7,2.7,8.1,7.7c3.3,2.3,2,6,1.2,9.2c-1.4,2-2.7,4.2-2,6.4c-2.8,11.1-13.7,14.7-23.4,18.1
									c-5.3,0.8-11,0.7-14.8-3c-1.4-1.9-2.3-4.1-2.4-6.7c1.7-2.2,3.8-4.7,7-4.1c0.3-3.6,4.5-2.9,6.9-4c2.3-1.2,5.7-1.7,6.7-4.7
									c0.9-8.1-11.1-8.2-12.8-16.2c-0.3,0.3-0.4,0.5-0.7,0.8c0.5,6,1.2,13.3-2.6,17.6c-4.5,2.8-5.7,9-11.7,8.4
									c-3.3-2.4-4.8-6.2-7.3-9.5c-2.6,2.4-4.1,5.9-7.9,7.8c-0.4,3-3.8,3.6-6.4,4.3c-2-0.4-3.8-1.7-4.1-3.7
									c-1.2-5.5,3.2-9.2,1.6-14.3c-1.6,1.2-1.3,3.8-2.9,5.4c-3.8,3-5.2,7.7-9.7,10.9c-1.9,0.2-2.3,1.2-4,1.9
									c-5.7,1.2-11.5,1.8-15.5-2.9c-3.8-2.8-4.2-6.7-6.7-10.1c1.6,7.5-7.5,8.6-11.8,12c-7.2,3.4-15.6,2-22.3-1
									c-3-1.8-2.2-5.7-2.4-8.4c0.9-3.3,3.9-5.6,7.4-6.3c-0.3-0.6,0.3-1,0.8-1.4c2.2-1,4.7-1.4,7-2.2c0.6-1,0.3-3-0.7-4.3
									c-4.1-0.9-6.2-4.4-8.2-7.2c-1.2,4.2,0,9.5-4.3,12.1c-2.4-0.6-3.8,1.2-5.6,1.9c-4.4,0.3-8.6,2.4-13.2,1.7
									c-1.4,5.3-0.2,13-7.3,14.7c-3.3,0.7-6.4-0.4-7.9-2.6c-4.5-4.4,2.9-14.1-6.7-14.9c-2.4,3.6-0.8,8.5-2.7,12.3
									c-1.5,2.4,0.4,6.1-2.8,7.9c0.8,1.9-1.8,1-2.3,2.1c-3.7,0.7-6.7-0.6-9-2.9c-5.4-6.1-0.3-15-0.5-21.8
									c-2.9,4.2-3.9,11.3-10.7,11.7c-2-1.7-5.6-2.1-6.2-5c-2.9,2.2-1,7.1-4.7,8.8c-0.4,2.8-2.2,5.2-4.9,6.9
									c-3.7,1-5.7-1.5-8.6-1.6c-2.4-2-3.9-5.3-5.8-7.8c-2.2,2.2-1.8,6.1-5.5,7.3c1.2,2.6-1.7,3.7-3.2,5.7c-3.1,1.8-6.3,0-9.2-0.9
									c-4.8-6-2.9,4.9-7.1,5.8c-0.3,8.5-9.5,11.7-16.2,14.3c-5.2,2-10.7,2.8-16.2,1.1c-14-2.6-27.8,1.1-40.5-4.9
									c-2.6-0.7-5.7-2.1-6.8-4.7c-0.7-2.6-2-5.8-0.9-8.6c1.6-2.6,4.4-5.3,8.5-5.1c2.6-2.7,7.1-4.1,11.2-3.2
									c5.9,2.4,12.7,4.2,19.2,2.1c6.1,0.1,13.1,0.8,18.5,0.3c0.3-0.3,0.8-0.7,1.1-1c-6.7-4.5-14.3-6.5-21.3-10.2
									c-4.7-5-12.2-7.5-17.2-12.5c-11.7-7.9-27.9-17.9-23.3-34.4c2.1-5.6,3.9-11.9,9.4-15.5c2.1-4.5,6.6-5.9,9.7-9.5
									c14.8-8,28.5-16.5,46-18.5C121.4,131,129.8,130.4,135.5,135.9z"/>
							</g>
						</g>
						<g>
							<g id="id5">
								<path class="st2" d="M401.2,233.9l7.5-0.1v1.1h-3.1l0.1,8.1l-1.3,0.1l-0.1-8.1l-3.1,0.1L401.2,233.9z"/>
							</g>
						</g>
						<g>
							<g id="id6">
								<path class="st2" d="M417.8,242.8l-0.1-5.4v-2.3h-0.1l-2.4,7.8H414l-2.7-7.7c0,0.8,0.1,2,0.1,2.2l0.1,5.5h-1.2l-0.2-9.2
									l1.9-0.1l2.7,7.7l2.4-7.8l1.8-0.1l0.2,9.2H417.8z"/>
							</g>
						</g>
						<g>
							<g id="id7">
								<path class="st3" d="M238.5,100.5c1.6,8.6-2.7,18.1,2.7,25.2c1.1,2.2-1.5,3.9-2.1,5.7c-2.1,4.6,1,9,0.6,13.7
									c-1,1.9-3.1,1.6-5.3,1.4c-2-1-0.5-4.3-1.5-6c-1.6-2.8,1.9-9-3.9-8.8c-1.5,1.3-4,0.5-6.1,0.9c-5.1,5,1.1,11.5-3.4,16.9
									c-1.8,0.5-3-0.9-3.8-2c0.2-4.7-0.8-8.8-1.7-12.9c-1.2-1.6-5.7-2-3.6-5.3c0.6-3.1,5.2-3,5.3-6.2c1.2-6.4,0.1-12.8,0.4-19.2
									c0.9-1.4,2.1-1.7,3.7-1.6c0.1,3.7,3.2,7.5,0.5,11.1c2,3.2,0.1,6.7,1.3,10.2c1.6,2.8,5.9,2.1,8.7,1.7
									c0.9-0.7,1.8-0.9,2.6-1.9c-1.8-6.6-0.1-15.9-0.8-23.4C233.5,97.6,237.4,98,238.5,100.5z"/>
							</g>
						</g>
						<g>
							<g id="id8">
								<path class="st4" d="M238.5,100.5c1.6,8.6-2.7,18.1,2.7,25.2c1.1,2.2-1.5,3.9-2.1,5.7c-2.1,4.6,1,9,0.6,13.7
									c-1,1.9-3.1,1.6-5.3,1.4c-2-1-0.5-4.3-1.5-6c-1.6-2.8,1.9-9-3.9-8.8c-1.5,1.3-4,0.5-6.1,0.9c-5.1,5,1.1,11.5-3.4,16.9
									c-1.8,0.5-3-0.9-3.8-2c0.2-4.7-0.8-8.8-1.7-12.9c-1.2-1.6-5.7-2-3.6-5.3c0.6-3.1,5.2-3,5.3-6.2c1.2-6.4,0.1-12.8,0.4-19.2
									c0.9-1.4,2.1-1.7,3.7-1.6c0.1,3.7,3.2,7.5,0.5,11.1c2,3.2,0.1,6.7,1.3,10.2c1.6,2.8,5.9,2.1,8.7,1.7
									c0.9-0.7,1.8-0.9,2.6-1.9c-1.8-6.6-0.1-15.9-0.8-23.4C233.5,97.6,237.4,98,238.5,100.5z"/>
							</g>
						</g>
						<g>
							<g id="id9">
								<path class="st3" d="M262.7,107.8c-0.6,4-4.6,7.4-3.5,11.2c3.5,3.6,6.8-1.1,10.5-1c1.6-4.6,7.9-8.4,4.8-13.6
									C271,98.6,264.7,104.6,262.7,107.8z M279.5,98.2c0.2,2,1.4,4.3,2,6.4c0.4,3.7-0.3,7.1-0.6,10.7
									c-5.1,5.6-10.9,14.2-20.5,12.2c-2.4,0.9-1.2,3.9-0.9,5.4c1.7,3,5.7,2.8,8.4,4.1c7.1,0.8,10.7-5.9,17.7-5.7
									c2.2-1.6,2.7-4,5.1-4.7c1.4,0.3,2.6,1.4,3.8,2c-0.7,7.2-9.9,8.8-14.8,13.6c-4.7,0.7-9.8,3.4-14.6,1
									c-7.2,1.4-8.9-5.3-13.4-8.9c-1-3-0.6-6.3-1.2-9.4c-3.8-5.2,2-9.9,3-15c5.2-6.3,9.4-17.6,20.4-15.3
									C275.8,95.4,277.3,98.1,279.5,98.2z"/>
							</g>
						</g>
						<g>
							<g id="id10">
								<path class="st4" d="M262.7,107.8c-0.6,4-4.6,7.4-3.6,11.2c3.6,3.6,6.9-1,10.5-1c1.6-4.6,7.9-8.4,4.8-13.6
									C271,98.6,264.7,104.6,262.7,107.8z"/>
							</g>
						</g>
						<g>
							<g id="id11">
								<path class="st4" d="M279.5,98.2c0.2,2,1.4,4.3,2,6.4c0.4,3.7-0.3,7.1-0.6,10.7c-5.1,5.6-10.9,14.2-20.5,12.2
									c-2.4,0.9-1.2,3.9-0.9,5.4c1.7,3,5.7,2.8,8.4,4.1c7.1,0.8,10.7-5.9,17.7-5.7c2.2-1.6,2.7-4,5.1-4.7c1.4,0.3,2.6,1.4,3.8,2
									c-0.7,7.2-9.9,8.8-14.8,13.6c-4.7,0.7-9.8,3.4-14.6,1c-7.2,1.4-8.9-5.3-13.4-8.9c-1-3-0.6-6.3-1.2-9.4c-3.8-5.2,2-9.9,3-15
									c5.2-6.3,9.4-17.6,20.4-15.3C275.8,95.4,277.3,98.1,279.5,98.2z"/>
							</g>
						</g>
						<g>
							<g id="id12">
								<path class="st3" d="M191.9,112.8c-1.2,0.9,0.8,1.8-0.3,2.6c4.7,3.8,10.2-1.1,15.3-1.7c1.8,1.3,1.3,4,0.9,5.7
									c-3.7,4.1-9.2,6.1-15,6.4c-2.7,1.3-2.4,4.4-1.7,6.5c1.1,5-0.1,11.4-0.1,16.4c-0.5,1.9-2.6,2-4,3c-2.7-1.2-3.2-4.6-2.4-7.1
									c0.4-6,0.3-9.9-0.3-15.8c-3.2-4.5-10.1-1.2-14.6-3.5c-3,0.8-5.1-1-6.8-2.8c-1-1.2,0.5-2.5,0.7-3.8c1.3-1.1,3.6-1.6,5.3-0.9
									c5.2-0.8,12.5,3.2,15.7-2.4c0.6-2.3-1.5-6.1,2.2-6.5c1.4-0.5,3.1-2.6,4.5-1.3C191.1,109.6,192.3,110.4,191.9,112.8z"/>
							</g>
						</g>
						<g>
							<g id="id13">
								<path class="st4" d="M191.9,112.8c-1.2,0.9,0.8,1.8-0.3,2.6c4.7,3.8,10.2-1.1,15.3-1.7c1.8,1.3,1.3,4,0.9,5.7
									c-3.7,4.1-9.2,6.1-15,6.4c-2.7,1.3-2.4,4.4-1.7,6.5c1.1,5-0.1,11.4-0.1,16.4c-0.5,1.9-2.6,2-4,3c-2.7-1.2-3.2-4.6-2.4-7.1
									c0.4-6,0.3-9.9-0.3-15.8c-3.2-4.5-10.1-1.2-14.6-3.5c-3,0.8-5.1-1-6.8-2.8c-1-1.2,0.5-2.5,0.7-3.8c1.3-1.1,3.6-1.6,5.3-0.9
									c5.2-0.8,12.5,3.2,15.7-2.4c0.6-2.3-1.5-6.1,2.2-6.5c1.4-0.5,3.1-2.6,4.5-1.3C191.1,109.6,192.3,110.4,191.9,112.8z"/>
							</g>
						</g>
						<g>
							<g id="id14">
								<path class="st3" d="M129.1,134.5c4.6,3.4,13.2,5.1,13,12.6c-0.1,2.8,1.2,7.1-2.4,8.2c-7.1,1.3-0.2-7.3-7.5-7.8
									c-13.3-7-30-1-43,3c-3.8,5-11.9,2-14.9,8.7c-5.8,1-6.6,7-7.6,11.4c1,3.9,0.9,8.8,4.7,10.6c1.3,5.4,7.9,8.3,11.1,12.7
									c2.8,1.4,5.9,4,9.2,5.2c13,8.2,27.9,14.4,40.4,24.1c-0.1,1.6,2,1.2,2.4,2.7c1.2,6.7-1,12.2-6.4,16.5
									c-4.7,2.6-9.9,1-13.9,4.6c-4.2,1.4-9.6-1-13.9,1c-6.1,0-11.3-2.2-17.3-2c-6.5-1.4-13.9-2.2-19.8-5.7
									c-1.9-1.6-1.2-4.9-0.9-7.1c2-2,6.3-2,9.4-1.5c4.6,1.5,9.2,2.8,14.4,2.5c8.8-2.1,17.7,2.1,25.6-1.6c2.8-0.1,6,1.3,8.4,0.1
									c2.3,0.7,3.5-1.3,5.6-1.2c2-1.5-0.4-3-1.2-4.3c-6.3-1-6.4-9.6-13.7-7.8c-8.4-6.3-18.1-9.4-26.6-14.8
									c-2.6-1.8-3.4-5.9-7.7-5.2c-3.6-1.8-5.3-6.1-9.2-7.4c-1.3-2.7-6.1-3-5.8-6.3c-2.7-2.5-2.3-6.2-4.7-8.8
									c-2.4-6.2,2.3-10.7,2.7-16.4c2.6-3.9,7.4-5.2,9.2-9.8c15.6-9.8,31.9-19.2,52.1-18.3C123.3,133.9,126.3,133.9,129.1,134.5z"
									/>
							</g>
						</g>
						<g>
							<g id="id15">
								<path class="st4" d="M129.1,134.5c4.6,3.4,13.2,5.1,13,12.6c-0.1,2.8,1.2,7.1-2.4,8.2c-7.1,1.3-0.2-7.3-7.5-7.8
									c-13.3-7-30-1-43,3c-3.8,5-11.9,2-14.9,8.7c-5.8,1-6.6,7-7.6,11.4c1,3.9,0.9,8.8,4.7,10.6c1.3,5.4,7.9,8.3,11.1,12.7
									c2.8,1.4,5.9,4,9.2,5.2c13,8.2,27.9,14.4,40.4,24.1c-0.1,1.6,2,1.2,2.4,2.7c1.2,6.7-1,12.2-6.4,16.5
									c-4.7,2.6-9.9,1-13.9,4.6c-4.2,1.4-9.6-1-13.9,1c-6.1,0-11.3-2.2-17.3-2c-6.5-1.4-13.9-2.2-19.8-5.7
									c-1.9-1.6-1.2-4.9-0.9-7.1c2-2,6.3-2,9.4-1.5c4.6,1.5,9.2,2.8,14.4,2.5c8.8-2.1,17.7,2.1,25.6-1.6c2.8-0.1,6,1.3,8.4,0.1
									c2.3,0.7,3.5-1.3,5.6-1.2c2-1.5-0.4-3-1.2-4.3c-6.3-1-6.4-9.6-13.7-7.8c-8.4-6.3-18.1-9.4-26.6-14.8
									c-2.6-1.8-3.4-5.9-7.7-5.2c-3.6-1.8-5.3-6.1-9.2-7.4c-1.3-2.7-6.1-3-5.8-6.3c-2.7-2.5-2.3-6.2-4.7-8.8
									c-2.4-6.2,2.3-10.7,2.7-16.4c2.6-3.9,7.4-5.2,9.2-9.8c15.6-9.8,31.9-19.2,52.1-18.3C123.3,133.9,126.3,133.9,129.1,134.5z"
									/>
							</g>
						</g>
						<g>
							<g id="id16">
								<path class="st3" d="M405.3,167.5c7.9,1.8,3.5,9.1,4.9,13.7c-1.2,2.1-4,1.7-5.9,1.2c-1.5-2.9,1.1-5.9-2.5-7.8
									c-5.2,0.6-10.1,2.2-13.4,6.4c-3.4,2.6-2,7.1-4.4,10.1c3.5,6.1,9.8,9.1,15.4,13.4c0.8,3.7,5,6.9,2.4,11.1
									c-3.5,7.3-10.7,10.6-17.3,14.7c-5.1-0.5-9.8,4.5-14,0.3c-3.1-7.1,6.1-4.8,8.8-8.1c4.8-1.3,10.1-3,12.7-7.5
									c0.9-3.4-2.2-5.4-4.7-7c-4.7-1.1-5.1-6.7-10.3-7.7c-1.8-4.8-3.2-10.3-0.7-15.3c2-7.9,9.9-14.2,17.4-17.1
									c1.5-2.6,4.9-1.9,7.5-1.4C402.2,167.8,404.2,166.6,405.3,167.5z"/>
							</g>
						</g>
						<g>
							<g id="id17">
								<path class="st4" d="M405.3,167.5c7.9,1.8,3.5,9.1,4.9,13.7c-1.2,2.1-4,1.7-5.9,1.2c-1.5-2.9,1.1-5.9-2.5-7.8
									c-5.2,0.6-10.1,2.2-13.4,6.4c-3.4,2.6-2,7.1-4.4,10.1c3.5,6.1,9.8,9.1,15.4,13.4c0.8,3.7,5,6.9,2.4,11.1
									c-3.5,7.3-10.7,10.6-17.3,14.7c-5.1-0.5-9.8,4.5-14,0.3c-3.1-7.1,6.1-4.8,8.8-8.1c4.8-1.3,10.1-3,12.7-7.5
									c0.9-3.4-2.2-5.4-4.7-7c-4.7-1.1-5.1-6.7-10.3-7.7c-1.8-4.8-3.2-10.3-0.7-15.3c2-7.9,9.9-14.2,17.4-17.1
									c1.5-2.6,4.9-1.9,7.5-1.4C402.2,167.8,404.2,166.6,405.3,167.5z"/>
							</g>
						</g>
						<g>
							<g id="id18">
								<path class="st3" d="M296.1,172.4c1.4,1.2,0.5,3.3,0.9,4.9c-5,3.3-12.8,1.2-16.6,6.5c-4.3,0.7-0.7,4.8-2.7,7.3
									c2.9,5.9,8.4,9.8,11.6,15.4c1.2,3.6,0.1,7.2-0.6,11.1c-5.2,6.2-14.6,6.5-22.5,5.8c-2.8-1.9-2.4-5.6-2-8.6
									c4.5-3.3,11.6-0.9,15.8-4.9c-1-3.8-3.8-8.2-8.1-9.8c-3.4-5.9-7.1-13.4-2-19.6c5.6-4.5,11.1-8,17.5-10.8
									C290.6,169.7,294.9,168.8,296.1,172.4z"/>
							</g>
						</g>
						<g>
							<g id="id19">
								<path class="st4" d="M296.1,172.4c1.4,1.2,0.5,3.3,0.9,4.9c-5,3.3-12.8,1.2-16.6,6.5c-4.3,0.7-0.7,4.8-2.7,7.3
									c2.9,5.9,8.4,9.8,11.6,15.4c1.2,3.6,0.1,7.2-0.6,11.1c-5.2,6.2-14.6,6.5-22.5,5.8c-2.8-1.9-2.4-5.6-2-8.6
									c4.5-3.3,11.6-0.9,15.8-4.9c-1-3.8-3.8-8.2-8.1-9.8c-3.4-5.9-7.1-13.4-2-19.6c5.6-4.5,11.1-8,17.5-10.8
									C290.6,169.7,294.9,168.8,296.1,172.4z"/>
							</g>
						</g>
						<g>
							<g id="id20">
								<path class="st3" d="M365.3,187.9c-0.8,9.7,4.1,24.5-7.6,29.8c-4.7,1-7.6-3.8-10.3-6.2c-2,2-2.1,5.3-4.1,7.5
									c-1.8,2.1-3.7,5.4-7.4,4.8c0.3-3.1,0.2-6.2,1.7-8.9c-1.2-3.8,0.3-7.6,1.3-11c-1.2-1-0.8-3.3-0.4-4.6c1-1,1.3-3.3,3.2-2.9
									c1.4,3,4.9,1.5,6.8,3.4c2.9,1.8,3.5,7.7,8.5,6.9c3.1-2.1,0-6.4,2.5-8.6c-0.9-4.6-1.1-9.4-4.8-12.7c0.6-0.6,0.3-1.4,0.4-2.2
									c-1.4-1.1-2.7-1.5-1.6-3.5c1.4-1.2,0.6-3.5,2.9-4.3C361.8,177.6,362.7,183.5,365.3,187.9z"/>
							</g>
						</g>
						<g>
							<g id="id21">
								<path class="st4" d="M365.3,187.9c-0.8,9.7,4.1,24.5-7.6,29.8c-4.7,1-7.6-3.8-10.3-6.2c-2,2-2.1,5.3-4.1,7.5
									c-1.8,2.1-3.7,5.4-7.4,4.8c0.3-3.1,0.2-6.2,1.7-8.9c-1.2-3.8,0.3-7.6,1.3-11c-1.2-1-0.8-3.3-0.4-4.6c1-1,1.3-3.3,3.2-2.9
									c1.4,3,4.9,1.5,6.8,3.4c2.9,1.8,3.5,7.7,8.5,6.9c3.1-2.1,0-6.4,2.5-8.6c-0.9-4.6-1.1-9.4-4.8-12.7c0.6-0.6,0.3-1.4,0.4-2.2
									c-1.4-1.1-2.7-1.5-1.6-3.5c1.4-1.2,0.6-3.5,2.9-4.3C361.8,177.6,362.7,183.5,365.3,187.9z"/>
							</g>
						</g>
						<g>
							<g id="id22">
								<path class="st4" d="M365.3,187.9c-0.8,9.7,4.1,24.5-7.6,29.8c-4.7,1-7.6-3.8-10.3-6.2c-2,2-2.1,5.3-4.1,7.5
									c-1.8,2.1-3.7,5.4-7.4,4.8c0.3-3.1,0.2-6.2,1.7-8.9c-1.2-3.8,0.3-7.6,1.3-11c-1.2-1-0.8-3.3-0.4-4.6c1-1,1.3-3.3,3.2-2.9
									c1.4,3,4.9,1.5,6.8,3.4c2.9,1.8,3.5,7.7,8.5,6.9c3.1-2.1,0-6.4,2.5-8.6c-0.9-4.6-1.1-9.4-4.8-12.7c0.6-0.6,0.3-1.4,0.4-2.2
									c-1.4-1.1-2.7-1.5-1.6-3.5c1.4-1.2,0.6-3.5,2.9-4.3C361.8,177.6,362.7,183.5,365.3,187.9z"/>
							</g>
						</g>
						<g>
							<g id="id23">
								<path class="st3" d="M154.1,184.4c-0.1,4.9,4.1,9.4,1,14.2c2.4,4-0.9,8.1,0.3,12c-3.1,5.2,2.2,11.5-2.6,16.6
									c-2.2,1.1-4.1,0.9-6.4,0.5c-2-2.7-0.7-6.9-1.6-9.9c1.4-7.2,3-13.3,2-20.7c3.5-4.6-2.2-11.2,1.6-15.8
									C151.5,180.1,153.1,182.6,154.1,184.4z"/>
							</g>
						</g>
						<g>
							<g id="id24">
								<path class="st4" d="M154.1,184.4c-0.1,4.9,4.1,9.4,1,14.2c2.4,4-0.9,8.1,0.3,12c-3.1,5.2,2.2,11.5-2.6,16.6
									c-2.2,1.1-4.1,0.9-6.4,0.5c-2-2.7-0.7-6.9-1.6-9.9c1.4-7.2,3-13.3,2-20.7c3.5-4.6-2.2-11.2,1.6-15.8
									C151.5,180.1,153.1,182.6,154.1,184.4z"/>
							</g>
						</g>
						<g>
							<g id="id25">
								<path class="st4" d="M154.1,184.4c-0.1,4.9,4.1,9.4,1,14.2c2.4,4-0.9,8.1,0.3,12c-3.1,5.2,2.2,11.5-2.6,16.6
									c-2.2,1.1-4.1,0.9-6.4,0.5c-2-2.7-0.7-6.9-1.6-9.9c1.4-7.2,3-13.3,2-20.7c3.5-4.6-2.2-11.2,1.6-15.8
									C151.5,180.1,153.1,182.6,154.1,184.4z"/>
							</g>
						</g>
						<g>
							<g id="id26">
								<path class="st3" d="M187.7,185.1c1.2,5.1,3.8,9.8,5.2,14.9c0.6,0.3,1,1.4,1.9,1c2.5-2,1.9-5.1,2.5-7.9
									c3.1-3.2,3.7-7.5,7-10.9c2.7,0.4,5.7,1.7,6.9,4.2c0.6,6.4-1,11.9,1.8,17.8c0.9,6.7-1.3,11.9-1.5,18.9
									c-1.4,1.2-3.2,4-5.6,3.1c-1.5-1.7-2-4-1.2-6.1c2.2-5.8,1.6-11.5,1.5-17.6c-1-0.6-1-1.8-2.2-2c-3.3,0.5-4,4.1-6,6.3
									c-2.1,2.1-2.7,6-7,5.1c-4.7-1.9-2.7-8.3-6.9-10.6c0.1-2,0.9-4.9-0.9-6.4c-3.5,1.2-2.7,5.3-3.3,8.2c-3.3,2.9,2,6.3-1.2,9.4
									c0.7,3.4-0.3,8.5-3.6,10.8c-2.7-0.7-5-1.1-6.2-3.9c-0.2-8,2.5-15.1,2.9-22.8c1.9-2-0.1-4,1.1-6.1c2.2-3,2.9-7.6,7-9.1
									C182.9,181.1,186.1,182.3,187.7,185.1z"/>
							</g>
						</g>
						<g>
							<g id="id27">
								<path class="st4" d="M187.7,185.1c1.2,5.1,3.8,9.8,5.2,14.9c0.6,0.3,1,1.4,1.9,1c2.5-2,1.9-5.1,2.5-7.9
									c3.1-3.2,3.7-7.5,7-10.9c2.7,0.4,5.7,1.7,6.9,4.2c0.6,6.4-1,11.9,1.8,17.8c0.9,6.7-1.3,11.9-1.5,18.9
									c-1.4,1.2-3.2,4-5.6,3.1c-1.5-1.7-2-4-1.2-6.1c2.2-5.8,1.6-11.5,1.5-17.6c-1-0.6-1-1.8-2.2-2c-3.3,0.5-4,4.1-6,6.3
									c-2.1,2.1-2.7,6-7,5.1c-4.7-1.9-2.7-8.3-6.9-10.6c0.1-2,0.9-4.9-0.9-6.4c-3.5,1.2-2.7,5.3-3.3,8.2c-3.3,2.9,2,6.3-1.2,9.4
									c0.7,3.4-0.3,8.5-3.6,10.8c-2.7-0.7-5-1.1-6.2-3.9c-0.2-8,2.5-15.1,2.9-22.8c1.9-2-0.1-4,1.1-6.1c2.2-3,2.9-7.6,7-9.1
									C182.9,181.1,186.1,182.3,187.7,185.1z"/>
							</g>
						</g>
						<g>
							<g id="id28">
								<path class="st3" d="M243.1,181.2c-3.4,0.9-3.2,4.9-5.2,7c1.4,3.2-2.2,6-0.9,9.2c2.8,1.6,6-0.1,9.1-0.1
									c2-0.7,5.2,0.1,6.3-2.2c0.5-1.5,0.9-2.5-0.4-3.9C247.8,188.3,249.4,180.9,243.1,181.2z M255.6,182.7
									c0.4,4.5,4.4,8.4,2.4,12.9c2.4,3.5-1.9,5.5-3.1,8.2c-6,0.9-11.7,3.1-18,2.1c-4.5,4.4,3.1,15.7-6.9,14.4
									c-1.8-1.7-1.4-4.5-2-6.8c-0.7-1.9,0-4.6-2.4-5.9c-1.6-0.3-3.3,0.1-4.6-1.1c1.9-2.4-2.6-4.8,1-6.4c2.4-0.3,4.9-0.5,6.7-1.9
									c0-8,1.7-15.7,6.8-21.9c2.8-0.5,3.4-3.6,6.7-2.9C248.6,173.2,252.3,178.2,255.6,182.7z"/>
							</g>
						</g>
						<g>
							<g id="id29">
								<path class="st4" d="M243.1,181.2c-3.4,0.9-3.2,4.9-5.2,7c1.5,3.2-2.2,6-0.9,9.2c2.8,1.6,6-0.1,9.1-0.1
									c2-0.7,5.2,0.1,6.3-2.2c0.5-1.5,0.9-2.5-0.4-3.9C247.8,188.3,249.4,181,243.1,181.2z"/>
							</g>
						</g>
						<g>
							<g id="id30">
								<path class="st4" d="M255.6,182.7c0.4,4.5,4.4,8.4,2.4,12.9c2.4,3.5-1.9,5.5-3.1,8.2c-6,0.9-11.7,3.1-18,2.1
									c-4.5,4.4,3.1,15.7-6.9,14.4c-1.8-1.7-1.4-4.5-2-6.8c-0.7-1.9,0-4.6-2.4-5.9c-1.6-0.3-3.3,0.1-4.6-1.1
									c1.9-2.4-2.6-4.8,1-6.4c2.4-0.3,4.9-0.5,6.7-1.9c0-8,1.7-15.7,6.8-21.9c2.8-0.5,3.4-3.6,6.7-2.9
									C248.6,173.2,252.3,178.2,255.6,182.7z"/>
							</g>
						</g>
						<g>
							<g id="id31">
								<path class="st3" d="M309,201.6c-1.5,3.7-3.6,7.4-3,11.8c0.6,4.6,6.2,1.5,9.5,2.4c3.8-0.7,1.1-5.4,4.4-6.5
									c0.7-2.1-0.1-4.4-0.9-6.2C317,199.5,312.2,199.8,309,201.6z M320.2,193.6c3.2,2.7,5.4,5.5,5.6,9.8
									c1.8,4.6,2.2,11.5-1.6,15.4c-2.6,2.1-4.8,3.2-7.8,4.9c-5-0.3-11.1,1.6-14-2.6c-3.6-3.8-4.8-9-3.8-14.2
									c7.8-4.2,0.3-14.2,9.9-17.3C313,189.2,316.2,193.8,320.2,193.6z"/>
							</g>
						</g>
						<g>
							<g id="id32">
								<path class="st4" d="M309,201.6c-1.4,3.7-3.6,7.4-3,11.8c0.6,4.6,6.3,1.5,9.5,2.4c3.8-0.7,1.1-5.4,4.4-6.5
									c0.7-2.1-0.1-4.4-0.9-6.1C317,199.6,312.2,199.8,309,201.6z"/>
							</g>
						</g>
						<g>
							<g id="id33">
								<path class="st4" d="M320.2,193.6c3.2,2.7,5.4,5.5,5.6,9.8c1.8,4.6,2.2,11.5-1.6,15.4c-2.6,2.1-4.8,3.2-7.8,4.9
									c-5-0.3-11.1,1.6-14-2.6c-3.6-3.8-4.8-9-3.8-14.2c7.8-4.2,0.3-14.2,9.9-17.3C313,189.2,316.2,193.8,320.2,193.6z"/>
							</g>
						</g>
						<g>
							<g id="id34">
								<path class="st4" d="M309,201.6c-1.4,3.7-3.6,7.4-3,11.8c0.6,4.6,6.3,1.5,9.5,2.4c3.8-0.7,1.1-5.4,4.4-6.5
									c0.7-2.1-0.1-4.4-0.9-6.1C317,199.6,312.2,199.8,309,201.6z"/>
							</g>
						</g>
						<g>
							<g id="id35">
								<path class="st4" d="M320.2,193.6c3.2,2.7,5.4,5.5,5.6,9.8c1.8,4.6,2.2,11.5-1.6,15.4c-2.6,2.1-4.8,3.2-7.8,4.9
									c-5-0.3-11.1,1.6-14-2.6c-3.6-3.8-4.8-9-3.8-14.2c7.8-4.2,0.3-14.2,9.9-17.3C313,189.2,316.2,193.8,320.2,193.6z"/>
							</g>
						</g>
					</g>
				</g>
			</g>
		</g>
	</g>
</g>
</svg>
